<?xml version="1.0" encoding="UTF-8"?><svg id="Layer_1" xmlns="http://www.w3.org/2000/svg" viewBox="0 0 1200 195.19"><path d="m978.77,151.43V51.78h11.43v99.64h-11.43Z"/><path d="m1080.36,151.43l-9.9-26.34h-46.96l-10.03,26.34h-11.85l38.05-99.64h14.49l38.18,99.64h-11.98Zm-52.82-37.07h38.88l-19.37-51.56-19.51,51.56Z"/><path d="m1147.74,151.43l-32.47-80.55v80.55h-11.43V51.78h15.05l33.03,82.5,33.03-82.5h15.05v99.64h-11.43v-80.55l-32.47,80.55h-8.36Z"/><path d="m931.09,88.75v62.67h-23.01v-58.53c0-14.25-6.13-22.22-18.08-22.22s-19.83,8.36-22.06,22.38c-.64,3.34-.8,8.52-.8,19.43v38.86h-23.02V51.8h20.39c.08.88.56,9.8.56,10.35,0,.72.88,1.11,1.43.64,8.44-6.69,17.76-12.9,30.74-12.9,21.34,0,33.85,14.41,33.85,38.86Z"/><path d="m807.02,51.89l-.72,11.39c-.08.72-.96,1.11-1.43.64-2.79-2.63-13.06-13.94-30.5-13.94-25.01,0-43.4,21.58-43.4,50.89s18.24,51.36,43.4,51.36c16.8,0,27.08-10.91,28.99-13.3.56-.64,1.59-.24,1.59.56-.24,3.03-.64,10.59-3.18,17.04-3.19,8.12-10.35,15.69-24.77,15.69-11.86,0-22.38-4.54-32.33-14.25l-12.03,16.48c10.91,12.34,28.11,19.27,46.83,19.27,30.1,0,48.18-20.63,48.18-54.31V51.89h-20.62Zm-27.71,79.47c-14.89,0-25.4-12.9-25.4-30.5s10.51-30.18,25.4-30.18,25.4,12.5,25.4,30.18c-.08,17.68-10.59,30.5-25.4,30.5Z"/><path d="m682.87,121.89c0,18.87-15.85,31.54-39.1,31.54-18.24,0-34.48-7.09-44.2-17.2l7.57-18c7.33,6.61,19.11,16.09,35.92,16.09,11.71,0,18.47-5.18,18.47-11.71,0-7.57-9.32-9.56-20.47-11.71-15.85-3.34-36.87-8.76-36.87-30.34,0-18.08,14.65-30.5,36.31-30.5,16.64,0,30.98,6.37,40.85,14.65l-11.31,15.85c-9.56-7.57-19.59-11.31-29.54-11.31s-14.89,4.14-14.89,10.11c0,8.36,10.75,10.51,18.63,12.1,19.83,3.82,38.62,9.8,38.62,30.42Z"/><path d="m346.33,49.89c-28.11,0-48.34,21.82-48.34,51.76s20.23,51.76,48.34,51.76,48.42-21.82,48.42-51.76-20.23-51.76-48.42-51.76Zm0,82.66c-14.89,0-25.4-12.66-25.4-30.98s10.27-30.98,25.4-30.98,25.4,12.66,25.4,30.98-10.51,30.98-25.4,30.98Z"/><path d="m402.87,101.66c0-29.54,20.23-51.76,47.22-51.76,21.42,0,37.11,10.75,44.44,30.98l-20.39,7.72c-5.57-12.5-12.9-17.84-23.97-17.84-13.86,0-24.21,13.06-24.21,30.98s10.27,30.98,24.21,30.98c11.15,0,18.4-5.33,23.97-17.84l20.39,7.72c-7.33,20.23-23.01,30.98-44.44,30.98-27-.16-47.22-22.38-47.22-51.92Z"/><path d="m279.84,5.62c-.4,0-.88.08-1.27.32l-14.97,7.96c-.32.16-.48.48-.48.8v47.38c0,.8-.96,1.11-1.51.64-2.23-1.91-7.41-6.77-14.57-10.11-3.74-1.75-9.24-2.71-14.26-2.71-25.16,0-43.4,21.82-43.4,51.76s18.24,51.76,43.4,51.76c13.22,0,23.17-6.93,29.23-13.14.4-.4.64-.64,1.04-1.04.56-.56,1.51-.24,1.51.56l.8,11.63h20.78V6.25c0-.32-.24-.64-.64-.64h-5.65Zm-42.13,126.94c-15.05,0-25.4-12.66-25.4-30.98s10.59-30.9,25.4-30.9,25.4,12.66,25.4,30.98-10.27,30.9-25.4,30.9Z"/><path d="m709.94,52.2l-14.41,7.64c-.32.16-.48.48-.48.8v90.78h23.01V52.44c0-.32-.24-.64-.64-.64h-6.21c-.48.08-.88.16-1.27.4Z"/><path d="m706.52,35.72c7.65,0,13.86-6.21,13.86-13.86s-6.21-13.86-13.86-13.86-13.86,6.21-13.86,13.86,6.21,13.86,13.86,13.86Z"/><path d="m591.29,51.81v54.07c0,41.01-22.93,47.46-43.4,47.46s-43.4-6.53-43.4-47.46v-54.07h22.93v59.81c0,5.81,1.43,20.94,20.47,20.94s20.47-15.05,20.47-20.94v-59.81h22.93Z"/><path d="m943.36,141.31v1.43h-3.27v8.68h-1.59v-8.68h-3.27v-1.43h8.12Zm11.39,10.11h-1.59v-7.96l-3.11,5.97h-.88l-3.11-5.89v7.88h-1.59v-10.11h2.07l3.03,5.81,3.03-5.81h2.07l.08,10.11Z"/><path d="m111.07,112.55v39.4c0,2.08-1.69,3.78-3.78,3.78H3.78C1.7,155.73,0,154.03,0,151.95V48.41C0,46.33,1.7,44.63,3.78,44.63h39.37v64.15c0,2.08,1.7,3.78,3.78,3.78h64.15-.01Z"/><path d="m154.25,57c0,33.16-19.32,55.49-43.18,55.56v-41.74c0-1.2-.48-2.35-1.33-3.2l-21.65-21.65c-.85-.85-2-1.33-3.2-1.33h-41.74V5.26c0-2.08,1.69-3.78,3.78-3.78h58.41c27.66,0,48.91,22.31,48.91,55.52Z"/></svg>