<svg width="404" height="96" viewBox="0 0 404 96" fill="none" xmlns="http://www.w3.org/2000/svg">
<path d="M83.1249 92V79.1788H87.285C90.0107 79.1788 91.6425 80.434 91.6425 82.532C91.6425 83.7514 91.0149 84.7018 89.921 85.2576C91.4631 85.7777 92.3239 86.8715 92.3239 88.4495C92.3239 90.6372 90.5486 92 87.6975 92H83.1249ZM87.6616 90.2606C89.5265 90.2606 90.5128 89.5971 90.5128 88.324C90.5128 86.9074 89.5624 86.1901 87.6616 86.1901H84.9898V90.2606H87.6616ZM87.2492 84.5224C88.9348 84.5224 89.8134 83.8769 89.8134 82.6755C89.8134 81.492 88.9706 80.9002 87.2492 80.9002H84.9898V84.5224H87.2492ZM93.7088 92V83.0879H95.2868L95.3586 84.8273H95.3765C95.8068 83.6079 96.7931 82.8906 98.0483 82.8906C98.2635 82.8906 98.4608 82.9086 98.6759 82.9624L98.5683 84.6121C98.2994 84.5404 98.0483 84.5045 97.7793 84.5045C96.6138 84.5045 95.8068 85.3832 95.5379 86.9432C95.4841 87.2839 95.4661 87.7502 95.4661 88.5392V92H93.7088ZM99.9871 92V83.0879H101.744V92H99.9871ZM99.9333 81.2947V79.2326H101.798V81.2947H99.9333ZM103.621 92V83.0879H105.199L105.253 84.6838C105.809 83.59 106.938 82.9086 108.23 82.9086C110.148 82.9086 111.296 84.2355 111.296 86.3873V92H109.539V86.6205C109.539 85.2576 108.911 84.5224 107.745 84.5224C106.526 84.5224 105.701 85.3473 105.45 86.728C105.396 87.0688 105.378 87.4812 105.378 88.4854V92H103.621ZM116.674 92.1255C114.397 92.1255 112.747 90.171 112.747 87.4991C112.747 84.8452 114.415 82.9086 116.674 82.9086C117.912 82.9086 118.97 83.5003 119.651 84.5045L119.759 83.0879H121.355V90.96C121.355 93.9725 119.741 95.8195 117.087 95.8195C115.437 95.8195 113.931 95.1919 112.963 94.098L113.913 92.8428C114.81 93.7573 115.778 94.1877 116.925 94.1877C118.629 94.1877 119.579 93.04 119.579 90.9779V90.6372C118.898 91.5696 117.876 92.1255 116.674 92.1255ZM117.051 90.5117C118.521 90.5117 119.579 89.2564 119.579 87.4991C119.579 85.7777 118.521 84.5224 117.051 84.5224C115.563 84.5224 114.505 85.7777 114.505 87.4991C114.505 89.2564 115.563 90.5117 117.051 90.5117ZM123.217 92V83.0879H124.974V92H123.217ZM123.163 81.2947V79.2326H125.028V81.2947H123.163ZM126.851 92V83.0879H128.429L128.483 84.6838C129.039 83.59 130.169 82.9086 131.46 82.9086C133.378 82.9086 134.526 84.2355 134.526 86.3873V92H132.769V86.6205C132.769 85.2576 132.141 84.5224 130.975 84.5224C129.756 84.5224 128.931 85.3473 128.68 86.728C128.626 87.0688 128.608 87.4812 128.608 88.4854V92H126.851ZM139.905 92.1255C137.627 92.1255 135.977 90.171 135.977 87.4991C135.977 84.8452 137.645 82.9086 139.905 82.9086C141.142 82.9086 142.2 83.5003 142.881 84.5045L142.989 83.0879H144.585V90.96C144.585 93.9725 142.971 95.8195 140.317 95.8195C138.667 95.8195 137.161 95.1919 136.193 94.098L137.143 92.8428C138.04 93.7573 139.008 94.1877 140.156 94.1877C141.859 94.1877 142.809 93.04 142.809 90.9779V90.6372C142.128 91.5696 141.106 92.1255 139.905 92.1255ZM140.281 90.5117C141.751 90.5117 142.809 89.2564 142.809 87.4991C142.809 85.7777 141.751 84.5224 140.281 84.5224C138.793 84.5224 137.735 85.7777 137.735 87.4991C137.735 89.2564 138.793 90.5117 140.281 90.5117ZM159.263 92L158.062 88.7364H152.449L151.248 92H149.311L154.171 79.1788H156.34L161.218 92H159.263ZM153.077 87.0688H157.434L155.264 81.1692L153.077 87.0688ZM165.481 92.1255C163.204 92.1255 161.554 90.171 161.554 87.4991C161.554 84.8452 163.222 82.9086 165.481 82.9086C166.718 82.9086 167.776 83.5003 168.458 84.5045L168.565 83.0879H170.161V90.96C170.161 93.9725 168.547 95.8195 165.894 95.8195C164.244 95.8195 162.738 95.1919 161.769 94.098L162.72 92.8428C163.616 93.7573 164.585 94.1877 165.732 94.1877C167.436 94.1877 168.386 93.04 168.386 90.9779V90.6372C167.705 91.5696 166.683 92.1255 165.481 92.1255ZM165.858 90.5117C167.328 90.5117 168.386 89.2564 168.386 87.4991C168.386 85.7777 167.328 84.5224 165.858 84.5224C164.369 84.5224 163.311 85.7777 163.311 87.4991C163.311 89.2564 164.369 90.5117 165.858 90.5117ZM172.024 92V83.0879H173.602L173.674 84.8273H173.692C174.122 83.6079 175.108 82.8906 176.363 82.8906C176.579 82.8906 176.776 82.9086 176.991 82.9624L176.883 84.6121C176.614 84.5404 176.363 84.5045 176.094 84.5045C174.929 84.5045 174.122 85.3832 173.853 86.9432C173.799 87.2839 173.781 87.7502 173.781 88.5392V92H172.024ZM181.689 92.1793C179.196 92.1793 177.385 90.2427 177.385 87.5529C177.385 84.8452 179.125 82.9086 181.599 82.9086C184.038 82.9086 185.813 84.8093 185.813 87.4274C185.813 87.6964 185.795 87.9474 185.759 88.1626H179.178C179.394 89.6509 180.362 90.6013 181.689 90.6013C182.729 90.6013 183.482 90.171 184.163 89.1847L185.544 89.9916C184.737 91.4083 183.392 92.1793 181.689 92.1793ZM183.966 86.8536C183.823 85.419 182.89 84.4866 181.599 84.4866C180.308 84.4866 179.394 85.4011 179.178 86.8536H183.966ZM191.364 92.1793C188.872 92.1793 187.061 90.2427 187.061 87.5529C187.061 84.8452 188.8 82.9086 191.275 82.9086C193.713 82.9086 195.489 84.8093 195.489 87.4274C195.489 87.6964 195.471 87.9474 195.435 88.1626H188.854C189.069 89.6509 190.037 90.6013 191.364 90.6013C192.404 90.6013 193.157 90.171 193.839 89.1847L195.22 89.9916C194.413 91.4083 193.068 92.1793 191.364 92.1793ZM193.642 86.8536C193.498 85.419 192.566 84.4866 191.275 84.4866C189.984 84.4866 189.069 85.4011 188.854 86.8536H193.642ZM196.935 92V83.0879H198.495L198.549 84.4148H198.585C199.069 83.4824 200.055 82.9086 201.239 82.9086C202.422 82.9086 203.283 83.5183 203.731 84.5942C204.287 83.5362 205.327 82.9086 206.582 82.9086C208.411 82.9086 209.487 84.2535 209.487 86.5129V92H207.73V86.5129C207.73 85.2397 207.156 84.5224 206.134 84.5224C205.04 84.5224 204.341 85.2935 204.144 86.6563C204.108 87.0329 204.09 87.4812 204.09 88.2881V92H202.333V86.5129C202.333 85.2397 201.759 84.5224 200.755 84.5224C199.625 84.5224 198.943 85.2756 198.764 86.6563C198.71 87.0329 198.692 87.4812 198.692 88.2881V92H196.935ZM215.251 92.1793C212.758 92.1793 210.947 90.2427 210.947 87.5529C210.947 84.8452 212.686 82.9086 215.161 82.9086C217.6 82.9086 219.375 84.8093 219.375 87.4274C219.375 87.6964 219.357 87.9474 219.321 88.1626H212.74C212.955 89.6509 213.924 90.6013 215.251 90.6013C216.291 90.6013 217.044 90.171 217.725 89.1847L219.106 89.9916C218.299 91.4083 216.954 92.1793 215.251 92.1793ZM217.528 86.8536C217.385 85.419 216.452 84.4866 215.161 84.4866C213.87 84.4866 212.955 85.4011 212.74 86.8536H217.528ZM220.821 92V83.0879H222.399L222.453 84.6838C223.009 83.59 224.139 82.9086 225.43 82.9086C227.349 82.9086 228.496 84.2355 228.496 86.3873V92H226.739V86.6205C226.739 85.2576 226.111 84.5224 224.946 84.5224C223.726 84.5224 222.902 85.3473 222.651 86.728C222.597 87.0688 222.579 87.4812 222.579 88.4854V92H220.821ZM233.847 92.1793C231.767 92.1793 230.763 91.0675 230.763 88.7005V84.7018H229.293V83.0879H230.763V80.3264H232.52V83.0879H235.156V84.7018H232.52V88.7185C232.52 89.9558 233.023 90.5655 234.045 90.5655C234.403 90.5655 234.798 90.4937 235.192 90.3503L235.425 91.9283C234.941 92.1076 234.385 92.1793 233.847 92.1793ZM239.899 92.1793C238.303 92.1793 236.851 91.5876 235.99 90.673L236.869 89.4537C237.658 90.2427 238.769 90.673 239.845 90.673C240.939 90.673 241.656 90.171 241.656 89.4716C241.656 88.6468 240.598 88.4316 239.648 88.2343C238.231 87.9653 236.384 87.4633 236.384 85.5625C236.384 83.9845 237.676 82.9086 239.54 82.9086C240.975 82.9086 242.159 83.3927 243.145 84.1817L242.266 85.419C241.387 84.7556 240.455 84.4328 239.54 84.4328C238.608 84.4328 238.052 84.8452 238.052 85.4728C238.052 86.3515 239.2 86.5667 239.881 86.6922C241.567 87.015 243.324 87.5529 243.324 89.4178C243.324 91.0855 241.925 92.1793 239.899 92.1793ZM252.717 92.1793C250.637 92.1793 249.633 91.0675 249.633 88.7005V84.7018H248.162V83.0879H249.633V80.3264H251.39V83.0879H254.026V84.7018H251.39V88.7185C251.39 89.9558 251.892 90.5655 252.914 90.5655C253.273 90.5655 253.668 90.4937 254.062 90.3503L254.295 91.9283C253.811 92.1076 253.255 92.1793 252.717 92.1793ZM259.102 92.1793C256.591 92.1793 254.798 90.2427 254.798 87.5529C254.798 84.8452 256.591 82.9086 259.102 82.9086C261.594 82.9086 263.405 84.8452 263.405 87.5529C263.405 90.2427 261.594 92.1793 259.102 92.1793ZM259.102 90.5655C260.59 90.5655 261.63 89.3282 261.63 87.5529C261.63 85.7597 260.59 84.5224 259.102 84.5224C257.595 84.5224 256.555 85.7597 256.555 87.5529C256.555 89.3282 257.613 90.5655 259.102 90.5655ZM268.781 92V79.1788H270.646V90.2427H277.084V92H268.781ZM278.437 92V83.0879H280.195V92H278.437ZM278.383 81.2947V79.2326H280.248V81.2947H278.383ZM283.003 92V84.7018H281.532V83.0879H283.003V82.0478C283.003 79.6988 284.007 78.5691 286.087 78.5691C286.607 78.5691 287.163 78.6587 287.665 78.8201L287.432 80.3981C287.002 80.2547 286.625 80.1829 286.284 80.1829C285.262 80.1829 284.76 80.7926 284.76 82.012V83.0879H287.199V84.7018H284.76V92H283.003ZM291.911 92.1793C289.419 92.1793 287.608 90.2427 287.608 87.5529C287.608 84.8452 289.347 82.9086 291.822 82.9086C294.26 82.9086 296.036 84.8093 296.036 87.4274C296.036 87.6964 296.018 87.9474 295.982 88.1626H289.401C289.616 89.6509 290.584 90.6013 291.911 90.6013C292.951 90.6013 293.704 90.171 294.386 89.1847L295.767 89.9916C294.96 91.4083 293.615 92.1793 291.911 92.1793ZM294.189 86.8536C294.045 85.419 293.113 84.4866 291.822 84.4866C290.531 84.4866 289.616 85.4011 289.401 86.8536H294.189Z" fill="white"/>
<g clip-path="url(#clip0_6_107)">
<path d="M393.636 37.3976V63.8792H383.912V39.1473C383.912 33.1242 381.321 29.7593 376.273 29.7593C371.226 29.7593 367.895 33.2924 366.953 39.2146C366.684 40.6278 366.616 42.815 366.616 47.4249V63.8455H356.892V21.7845H365.506C365.539 22.1546 365.741 25.9233 365.741 26.1588C365.741 26.4617 366.112 26.6299 366.347 26.428C369.914 23.6015 373.851 20.9769 379.335 20.9769C388.353 20.9769 393.636 27.0674 393.636 37.3976Z" fill="white"/>
<path d="M341.211 21.8182L340.909 26.63C340.875 26.9328 340.505 27.1011 340.303 26.8992C339.125 25.7888 334.785 21.0106 327.415 21.0106C316.85 21.0106 309.077 30.1295 309.077 42.5122C309.077 55.0632 316.782 64.2157 327.415 64.2157C334.515 64.2157 338.856 59.6058 339.664 58.5964C339.899 58.3272 340.337 58.4954 340.337 58.8319C340.236 60.1106 340.067 63.3072 338.991 66.0328C337.645 69.4649 334.616 72.6616 328.526 72.6616C323.512 72.6616 319.07 70.7436 314.864 66.6384L309.783 73.6037C314.393 78.8193 321.661 81.7468 329.569 81.7468C342.288 81.7468 349.927 73.0317 349.927 58.7983V21.8182H341.211ZM329.502 55.3997C323.209 55.3997 318.768 49.9486 318.768 42.5122C318.768 35.0758 323.209 29.7593 329.502 29.7593C335.794 29.7593 340.236 35.0422 340.236 42.5122C340.202 49.9823 335.76 55.3997 329.502 55.3997Z" fill="white"/>
<path d="M288.753 51.3956C288.753 59.3704 282.057 64.7205 272.231 64.7205C264.526 64.7205 257.661 61.7258 253.556 57.4524L256.753 49.8478C259.849 52.6406 264.829 56.6448 271.929 56.6448C276.875 56.6448 279.735 54.4577 279.735 51.6985C279.735 48.5018 275.798 47.6606 271.087 46.7521C264.391 45.3388 255.508 43.0507 255.508 33.9319C255.508 26.2936 261.699 21.0444 270.852 21.0444C277.884 21.0444 283.941 23.7363 288.114 27.2358L283.335 33.9319C279.298 30.7352 275.058 29.1537 270.852 29.1537C266.646 29.1537 264.559 30.9035 264.559 33.4271C264.559 36.9603 269.102 37.8688 272.433 38.5418C280.812 40.1569 288.753 42.6806 288.753 51.3956Z" fill="white"/>
<path d="M146.553 20.9769C134.675 20.9769 126.128 30.1967 126.128 42.8487C126.128 55.5006 134.675 64.7204 146.553 64.7204C158.431 64.7204 167.011 55.5006 167.011 42.8487C167.011 30.1967 158.465 20.9769 146.553 20.9769ZM146.553 55.9044C140.261 55.9044 135.819 50.5543 135.819 42.815C135.819 35.1094 140.16 29.7256 146.553 29.7256C152.913 29.7256 157.287 35.0758 157.287 42.815C157.287 50.5543 152.845 55.9044 146.553 55.9044Z" fill="white"/>
<path d="M170.444 42.8487C170.444 30.365 178.99 20.9769 190.397 20.9769C199.449 20.9769 206.078 25.5195 209.173 34.0663L200.559 37.3303C198.204 32.0474 195.108 29.7929 190.431 29.7929C184.576 29.7929 180.202 35.3113 180.202 42.8823C180.202 50.4197 184.542 55.9717 190.431 55.9717C195.142 55.9717 198.204 53.7172 200.559 48.4344L209.173 51.6983C206.078 60.2451 199.449 64.7877 190.397 64.7877C178.99 64.7204 170.444 55.3324 170.444 42.8487Z" fill="white"/>
<path d="M118.456 2.26825C118.288 2.26825 118.086 2.3019 117.918 2.40284L111.592 5.76773C111.457 5.83503 111.39 5.96962 111.39 6.10422V26.1253C111.39 26.4618 110.986 26.5964 110.75 26.3945C109.808 25.5869 107.621 23.5343 104.593 22.1211C103.011 21.3808 100.689 20.977 98.5696 20.977C87.9366 20.977 80.231 30.1968 80.231 42.8487C80.231 55.5007 87.9366 64.7205 98.5696 64.7205C104.155 64.7205 108.361 61.793 110.919 59.1684C111.087 59.0002 111.188 58.8992 111.356 58.731C111.592 58.4954 111.996 58.63 111.996 58.9665L112.332 63.8793H121.114V2.53744C121.114 2.40284 121.013 2.26825 120.845 2.26825H118.456ZM100.656 55.9045C94.2962 55.9045 89.9219 50.5543 89.9219 42.8151C89.9219 35.0759 94.3972 29.7593 100.656 29.7593C106.948 29.7593 111.39 35.1095 111.39 42.8487C111.39 50.5543 107.049 55.9045 100.656 55.9045Z" fill="white"/>
<path d="M300.193 21.9528L294.103 25.1831C293.968 25.2504 293.901 25.385 293.901 25.5196V63.8792H303.626V22.0537C303.626 21.9191 303.525 21.7845 303.356 21.7845H300.732C300.53 21.8182 300.362 21.8518 300.193 21.9528Z" fill="white"/>
<path d="M298.747 14.9876C301.977 14.9876 304.601 12.363 304.601 9.13267C304.601 5.90238 301.977 3.27777 298.747 3.27777C295.516 3.27777 292.892 5.90238 292.892 9.13267C292.892 12.363 295.516 14.9876 298.747 14.9876Z" fill="white"/>
<path d="M250.057 21.7845V44.6321C250.057 61.9612 240.366 64.6868 231.718 64.6868C223.07 64.6868 213.379 61.9276 213.379 44.6321V21.7845H223.07V47.0548C223.07 49.5112 223.676 55.9045 231.718 55.9045C239.76 55.9045 240.366 49.5448 240.366 47.0548V21.7845H250.057Z" fill="white"/>
<path d="M399.188 59.5723V60.178H397.809V63.8457H397.136V60.178H395.756V59.5723H399.188ZM404 63.8457H403.327V60.4808L402.015 63.0045H401.645L400.332 60.5145V63.8457H399.659V59.5723H400.534L401.813 62.0287L403.092 59.5723H403.966L404 63.8457Z" fill="white"/>
<path d="M47.1542 47.425V64.0812C47.1542 64.9561 46.4475 65.6627 45.5727 65.6627H1.79555C0.920676 65.6627 0.21405 64.9561 0.21405 64.0812V20.3377C0.21405 19.4629 0.920676 18.7562 1.79555 18.7562H18.4181V45.8435C18.4181 46.7184 19.1247 47.425 19.9996 47.425H47.1542Z" fill="white"/>
<path d="M65.3918 23.9381C65.3918 37.936 57.2151 47.3913 47.1541 47.425V29.793C47.1541 29.2883 46.9522 28.7835 46.5821 28.4471L37.4296 19.2946C37.0595 18.9244 36.5884 18.7225 36.0837 18.7225H18.4517V2.10002C18.4517 1.22515 19.1583 0.518522 20.0332 0.518522H44.6978C56.4076 0.484874 65.3918 9.90655 65.3918 23.9381Z" fill="white"/>
</g>
<defs>
<clipPath id="clip0_6_107">
<rect width="403.786" height="81.2283" fill="white" transform="translate(0.21405 0.484863)"/>
</clipPath>
</defs>
</svg>
